<?xml version="1.0" encoding="utf-8"?>
<svg version="1.1" id="Layer_1" xmlns="http://www.w3.org/2000/svg" xmlns:xlink="http://www.w3.org/1999/xlink" x="0px" y="0px"
	 width="400px" height="128px" viewBox="-187.5 -14 400 128" enable-background="new -187.5 -14 400 128" xml:space="preserve">
<g>
	<path fill="#3D5DAB" d="M-161,71.939l3.754,9.028h3.924l-14.3-33.328l-14.681,33.328h3.881l3.839-9.028H-161L-161,71.939z
		 M-162.392,68.648h-10.758l5.443-12.741L-162.392,68.648L-162.392,68.648z M-150.495,80.968h3.544V56.457l24.805,25.945V49.158
		h-3.543v24.637l-24.806-25.986V80.968L-150.495,80.968z M-102.201,64.979v3.29h9.451c0,5.907-5.822,9.955-11.349,9.955
		c-3.333,0-6.707-1.729-9.027-4.05c-2.363-2.404-3.713-5.611-3.713-8.986c0-7.172,5.737-13.288,12.994-13.288
		c4.683,0,8.269,2.235,10.927,5.99l2.573-2.404c-3.374-4.389-7.889-6.877-13.457-6.877c-9.154,0-16.579,7.424-16.579,16.538
		c0,8.943,7.425,16.367,16.368,16.367c4.431,0,8.859-1.938,11.771-5.314c2.912-3.375,3.375-6.919,3.291-11.222L-102.201,64.979
		L-102.201,64.979z M-87.309,80.968h16.494v-3.29h-12.951V65.19h12.572V61.9h-12.572v-9.451h12.951v-3.291h-16.494V80.968
		L-87.309,80.968z M-62.924,49.158h-3.543v31.81h12.318v-3.29h-8.774V49.158L-62.924,49.158z"/>
	<path fill="#3D5DAB" d="M-161.457,22.829h-2.998v16.849c0,3.07,0.285,5.533,2.642,7.782c1.82,1.784,4.426,2.75,6.961,2.75
		c2.712,0,5.39-1.072,7.246-3.07c2.142-2.213,2.356-4.534,2.356-7.46V22.83h-2.999v16.027c0,2.107,0.106,4.462-1.322,6.176
		c-1.249,1.499-3.354,2.392-5.282,2.392c-1.964,0-4.248-0.929-5.427-2.57c-1.25-1.714-1.177-3.998-1.177-5.998V22.829H-161.457z
		 M-136.933,25.613h0.892c3.605,0,6.853,0.429,6.853,4.854c0,4.177-3.427,4.819-6.817,4.819h-0.928L-136.933,25.613L-136.933,25.613
		z M-136.933,37.928h0.75l8.138,11.816h3.677l-8.568-12.065c4.141-0.356,6.748-3.285,6.748-7.425c0-6.068-4.748-7.425-9.853-7.425
		h-3.891v26.916h2.999L-136.933,37.928L-136.933,37.928z M-118.301,37.25h2.606c3.284,0,7.282,0.607,7.282,4.783
		c0,4.106-3.534,4.926-6.89,4.926h-2.999V37.25L-118.301,37.25z M-121.3,49.744h6.249c5.318,0,9.638-2.142,9.638-7.497
		c0-3.212-1.893-6.104-5.104-6.889c1.82-1.214,2.642-3.071,2.642-5.247c0-5.498-4.104-7.283-8.996-7.283h-4.426v26.916H-121.3z
		 M-118.301,25.613h1.179c3.677,0,6.247,0.429,6.247,4.498c0,4.176-2.892,4.568-6.283,4.568h-1.142L-118.301,25.613L-118.301,25.613
		z M-87.917,42.105l3.177,7.639h3.32l-12.101-28.201l-12.422,28.2h3.284l3.249-7.639L-87.917,42.105L-87.917,42.105z M-89.095,39.32
		h-9.101l4.604-10.78L-89.095,39.32L-89.095,39.32z M-79.028,49.744h2.999v-20.74l20.988,21.954V22.829h-2.998v20.847l-20.99-21.99
		V49.744L-79.028,49.744z"/>
	<path fill="#3D5DAB" d="M-180.149,34.031h1.375V33.45h-3.361v0.582h1.359v5.052h0.626V34.031L-180.149,34.031z M-177.175,35.736
		V33.45h-0.626v5.633h0.626v-2.765h2.885v2.765h0.626V33.45h-0.626v2.287h-2.885V35.736z M-172.198,39.083h2.921V38.5h-2.294v-2.212
		h2.228v-0.582h-2.228v-1.675h2.294V33.45h-2.921V39.083L-172.198,39.083z"/>
	<path fill="#3D5DAB" d="M-7.186,81.034h3.567v-7.286h7.538v7.286h3.566V64.187H3.919v6.628h-7.538v-6.628h-3.567V81.034
		L-7.186,81.034z M15.833,81.338c4.325,0,6.222-3.417,6.222-6.526c0-3.162-1.947-6.399-6.248-6.399s-6.146,3.339-6.146,6.5
		S11.532,81.338,15.833,81.338L15.833,81.338z M15.883,78.782c-1.897,0-2.656-1.669-2.656-3.971c0-2.303,0.631-3.896,2.529-3.896
		c1.922,0,2.732,1.695,2.732,3.997C18.489,77.213,17.804,78.782,15.883,78.782L15.883,78.782z M27.341,81.338
		c3.035,0,4.882-1.367,4.882-3.946c0-2.076-1.416-2.96-3.364-3.769c-1.417-0.559-2.528-0.784-2.528-1.62
		c0-0.656,0.505-1.088,1.694-1.088c1.189,0,2.151,0.481,2.631,0.785l1.189-2.301c-0.557-0.33-1.846-0.985-3.947-0.985
		c-2.783,0-4.603,1.466-4.603,3.767c0,1.874,1.037,2.836,2.757,3.643c1.746,0.835,3.111,1.063,3.111,1.898
		c0,0.733-0.734,1.11-2.025,1.11c-1.365,0-2.554-0.683-3.035-1.011l-1.138,2.354C23.725,80.678,25.141,81.338,27.341,81.338
		L27.341,81.338z M34.07,86.573h3.364v-6.121c0.43,0.378,1.316,0.884,2.833,0.884c3.211,0,5.513-2.58,5.513-6.477
		c0-4.121-1.897-6.45-5.008-6.45c-1.669,0-2.731,0.76-3.414,1.594v-1.288h-3.289L34.07,86.573L34.07,86.573z M39.559,78.732
		c-1.063,0-1.695-0.456-2.125-0.835v-5.539c0.252-0.355,1.062-1.267,2.326-1.267c1.645,0,2.454,1.442,2.454,3.768
		C42.215,77.291,41.28,78.732,39.559,78.732L39.559,78.732z M49.602,67.121c1.188,0,2.074-0.938,2.074-2.023
		c0-1.063-0.885-1.974-2.074-1.974c-1.189,0-2.048,0.91-2.048,1.974C47.553,66.184,48.412,67.121,49.602,67.121L49.602,67.121z
		 M47.906,81.034h3.389V68.715h-3.389V81.034L47.906,81.034z M58.985,81.338c1.543,0,2.582-0.43,3.086-0.709l-0.784-2.504
		c-0.253,0.151-0.886,0.454-1.619,0.454c-0.937,0-1.238-0.529-1.238-1.743v-5.618h2.882v-2.503h-2.882v-3.567h-3.34v3.567h-1.973
		v2.503h1.973v6.273C55.09,79.845,56.076,81.338,58.985,81.338L58.985,81.338z M66.574,81.338c1.593,0,2.806-0.81,3.465-1.619
		c0.026,0.378,0.101,1.01,0.202,1.315h3.314c-0.177-0.786-0.354-1.974-0.354-3.643v-4.427c0-3.264-1.594-4.553-4.958-4.553
		c-2.328,0-3.997,0.859-4.985,1.771l1.468,2.05c0.733-0.583,1.796-1.166,3.136-1.166c1.468,0,1.999,0.532,1.999,1.72v0.708h-0.43
		c-3.264,0-6.577,1.166-6.577,4.377C62.855,80.072,64.475,81.338,66.574,81.338L66.574,81.338z M67.586,78.883
		c-0.758,0-1.491-0.378-1.491-1.289c0-1.442,1.365-2.024,3.338-2.024h0.431v2.226C69.332,78.402,68.623,78.883,67.586,78.883
		L67.586,78.883z M76.009,81.034h3.364V62.82h-3.364V81.034L76.009,81.034z M87.163,81.034h3.567v-7.008h5.364v-2.782H90.73v-4.123
		h6.097v-2.935h-9.664V81.034L87.163,81.034z M104.035,81.338c4.326,0,6.224-3.417,6.224-6.526c0-3.162-1.947-6.399-6.248-6.399
		c-4.301,0-6.147,3.339-6.147,6.5S99.736,81.338,104.035,81.338L104.035,81.338z M104.087,78.782c-1.897,0-2.657-1.669-2.657-3.971
		c0-2.303,0.632-3.896,2.53-3.896c1.922,0,2.731,1.695,2.731,3.997C106.691,77.213,106.009,78.782,104.087,78.782L104.087,78.782z
		 M115.748,81.338c2.048,0,3.313-1.115,3.971-1.947c0.024,0.506,0.15,1.313,0.252,1.644h3.314c-0.153-0.733-0.33-1.973-0.33-3.543
		v-8.776h-3.364v8.272c-0.253,0.304-1.24,1.541-2.53,1.541c-1.214,0-1.645-0.631-1.645-1.871v-7.942h-3.364v8.624
		C112.054,79.591,113.041,81.338,115.748,81.338L115.748,81.338z M125.738,81.034h3.364v-8.272c0.505-0.683,1.441-1.544,2.529-1.544
		c1.214,0,1.645,0.633,1.645,1.873v7.943h3.364v-8.626c0-2.277-1.011-3.996-3.694-3.996c-1.77,0-3.034,0.809-3.92,1.847v-1.544
		h-3.288V81.034L125.738,81.034z M143.521,81.362c1.542,0,2.63-0.658,3.465-1.669c0.026,0.379,0.152,1.037,0.253,1.341h3.314
		c-0.177-0.812-0.354-2.025-0.354-3.517V62.82h-3.364v6.451c-0.582-0.48-1.543-0.859-2.858-0.859c-3.162,0-5.515,2.553-5.515,6.5
		C138.462,79.034,140.436,81.362,143.521,81.362L143.521,81.362z M144.534,78.655c-1.721,0-2.505-1.391-2.505-3.743
		c0-2.428,0.937-3.869,2.656-3.869c0.962,0,1.618,0.327,2.15,0.808v5.566C146.354,78.049,145.519,78.655,144.534,78.655
		L144.534,78.655z M155.815,81.338c1.593,0,2.806-0.81,3.465-1.619c0.025,0.378,0.102,1.01,0.202,1.315h3.314
		c-0.176-0.786-0.354-1.974-0.354-3.643v-4.427c0-3.264-1.593-4.553-4.958-4.553c-2.328,0-3.997,0.859-4.983,1.771l1.466,2.05
		c0.733-0.583,1.795-1.166,3.137-1.166c1.467,0,1.998,0.532,1.998,1.72v0.708h-0.43c-3.263,0-6.577,1.166-6.577,4.377
		C152.096,80.072,153.715,81.338,155.815,81.338L155.815,81.338z M156.827,78.883c-0.758,0-1.492-0.378-1.492-1.289
		c0-1.442,1.365-2.024,3.339-2.024h0.43v2.226C158.572,78.402,157.863,78.883,156.827,78.883L156.827,78.883z M169.803,81.338
		c1.543,0,2.581-0.43,3.086-0.709l-0.784-2.504c-0.253,0.151-0.886,0.454-1.619,0.454c-0.937,0-1.238-0.529-1.238-1.743v-5.618
		h2.883v-2.503h-2.883v-3.567h-3.34v3.567h-1.973v2.503h1.973v6.273C165.907,79.845,166.894,81.338,169.803,81.338L169.803,81.338z
		 M176.278,67.121c1.189,0,2.075-0.938,2.075-2.023c0-1.063-0.885-1.974-2.075-1.974c-1.188,0-2.048,0.91-2.048,1.974
		C174.229,66.184,175.089,67.121,176.278,67.121L176.278,67.121z M174.583,81.034h3.39V68.715h-3.39V81.034L174.583,81.034z
		 M186.244,81.338c4.326,0,6.224-3.417,6.224-6.526c0-3.162-1.948-6.399-6.249-6.399c-4.3,0-6.146,3.339-6.146,6.5
		S181.945,81.338,186.244,81.338L186.244,81.338z M186.295,78.782c-1.898,0-2.656-1.669-2.656-3.971
		c0-2.303,0.633-3.896,2.531-3.896c1.921,0,2.731,1.695,2.731,3.997C188.901,77.213,188.218,78.782,186.295,78.782L186.295,78.782z
		 M194.363,81.034h3.365v-8.272c0.506-0.683,1.442-1.544,2.53-1.544c1.214,0,1.644,0.633,1.644,1.873v7.943h3.364v-8.626
		c0-2.277-1.01-3.996-3.692-3.996c-1.771,0-3.036,0.809-3.921,1.847v-1.544h-3.289V81.034L194.363,81.034z"/>
	<path fill="#3D5DAB" d="M0.858,53.52c6.546,0,10.571-3.406,10.571-8.758c0-5.44-3.671-7.432-7.564-9.2
		c-3.095-1.417-5.439-2.167-5.439-4.468c0-1.99,1.548-3.052,3.936-3.052c2.521,0,4.733,1.15,5.75,1.813l2.521-4.38
		c-1.238-0.929-3.804-2.477-8.624-2.477c-5.264,0-9.51,3.141-9.51,8.183c0,4.776,2.698,7.032,6.325,8.802
		c3.45,1.725,6.59,2.478,6.59,5.086c0,1.902-1.725,3.405-4.689,3.405c-3.405,0-5.661-1.725-6.324-2.211l-2.655,4.334
		C-6.971,51.662-3.918,53.52,0.858,53.52L0.858,53.52z M20.93,53.52c2.698,0,4.511-0.753,5.396-1.238l-1.371-4.379
		c-0.442,0.265-1.548,0.795-2.832,0.795c-1.636,0-2.167-0.929-2.167-3.052v-9.819h5.043v-4.378h-5.043v-6.236h-5.839v6.236h-3.45
		v4.378h3.45v10.969C14.118,50.91,15.843,53.52,20.93,53.52L20.93,53.52z M31.014,53.431c2.167,0,3.893-1.681,3.893-3.804
		c0-2.123-1.725-3.759-3.893-3.759c-2.167,0-3.937,1.637-3.937,3.759C27.077,51.751,28.847,53.431,31.014,53.431L31.014,53.431z
		 M42.611,52.988h5.618l1.902-15.171c0.222-1.945,0.354-3.67,0.398-4.334h0.089c0.176,0.62,0.619,2.388,1.193,4.246l4.999,15.26
		h6.148l4.999-15.305c0.619-1.946,1.061-3.538,1.194-4.201h0.088c0.044,0.575,0.221,2.122,0.487,4.291l1.901,15.214h6.37
		l-4.069-29.458h-6.015l-6.104,18.178C61.1,43.833,60.481,46,60.26,46.795h-0.089c-0.265-0.84-0.796-2.963-1.503-5.086L52.74,23.531
		h-6.059L42.611,52.988L42.611,52.988z M83.877,28.661c2.08,0,3.628-1.637,3.628-3.539c0-1.859-1.549-3.45-3.628-3.45
		c-2.078,0-3.582,1.592-3.582,3.45C80.296,27.024,81.799,28.661,83.877,28.661L83.877,28.661z M80.914,52.988h5.927V31.448h-5.927
		V52.988L80.914,52.988z M100.774,53.52c3.936,0,5.926-1.283,6.943-1.946l-1.813-3.937c-0.664,0.397-2.168,1.328-4.645,1.328
		c-3.671,0-5.396-2.919-5.396-6.9c0-3.982,1.813-6.679,5.264-6.679c2.166,0,3.539,0.664,4.51,1.283l1.904-4.024
		c-1.018-0.664-3.097-1.726-6.592-1.726c-6.5,0-11.323,4.07-11.323,11.323C89.627,48.919,93.873,53.52,100.774,53.52L100.774,53.52z
		 M109.576,52.988h5.882V38.525c0.442-0.574,2.167-2.698,4.468-2.698c2.079,0,2.83,1.106,2.83,3.273v13.889h5.884V37.905
		c0-3.98-1.726-6.988-6.458-6.988c-3.539,0-5.618,1.946-6.723,3.141V21.142h-5.882V52.988L109.576,52.988z M137.573,53.52
		c2.787,0,4.911-1.415,6.061-2.832c0.044,0.664,0.176,1.77,0.354,2.301h5.793c-0.309-1.372-0.62-3.45-0.62-6.369v-7.741
		c0-5.706-2.787-7.962-8.668-7.962c-4.07,0-6.988,1.504-8.714,3.096l2.565,3.583c1.283-1.017,3.141-2.035,5.484-2.035
		c2.566,0,3.495,0.929,3.495,3.007v1.238h-0.751c-5.707,0-11.5,2.035-11.5,7.652C131.072,51.307,133.902,53.52,137.573,53.52
		L137.573,53.52z M139.343,49.229c-1.329,0-2.61-0.663-2.61-2.255c0-2.522,2.387-3.54,5.838-3.54h0.752v3.892
		C142.395,48.389,141.155,49.229,139.343,49.229L139.343,49.229z M162.652,53.52c4.423,0,6.635-1.283,8.051-2.08l-1.901-3.803
		c-1.062,0.531-2.7,1.504-5.619,1.504c-3.583,0-5.219-2.388-5.485-5.574h13.624c0.044-0.708,0.088-1.371,0.088-2.035
		c0-6.723-3.274-10.615-9.377-10.615c-5.971,0-10.659,4.379-10.659,11.19C151.374,48.964,155.443,53.52,162.652,53.52L162.652,53.52
		z M157.61,39.586c0.442-2.786,1.812-4.422,4.334-4.422c2.698,0,3.67,1.99,3.716,4.422H157.61L157.61,39.586z M174.374,52.988h5.882
		V21.142h-5.882V52.988L174.374,52.988z M183.485,35.252h3.627c1.326-1.68,3.185-4.909,3.185-7.918c0-2.698-1.903-4.333-4.025-4.333
		c-1.946,0-3.45,1.282-3.45,3.141c0,2.609,2.301,2.697,2.301,4.909C185.122,32.555,184.193,34.234,183.485,35.252L183.485,35.252z
		 M197.373,53.52c5.308,0,8.537-2.389,8.537-6.9c0-3.628-2.477-5.176-5.882-6.591c-2.477-0.973-4.423-1.371-4.423-2.831
		c0-1.15,0.883-1.902,2.964-1.902c2.079,0,3.76,0.84,4.6,1.371l2.079-4.024c-0.974-0.575-3.229-1.726-6.9-1.726
		c-4.866,0-8.051,2.566-8.051,6.59c0,3.273,1.814,4.954,4.823,6.369c3.052,1.46,5.44,1.858,5.44,3.318
		c0,1.282-1.284,1.947-3.54,1.947c-2.388,0-4.467-1.194-5.307-1.77l-1.991,4.114C191.048,52.369,193.525,53.52,197.373,53.52
		L197.373,53.52z"/>
	<polygon fill="#3D5DAB" points="-29.333,22.72 -29.333,81.322 -28.236,81.322 -28.236,22.72 	"/>
</g>
</svg>
