<svg xmlns="http://www.w3.org/2000/svg" width="201" height="34" viewBox="0 0 201 34">
  <g fill="#FFF" fill-rule="evenodd">
    <path d="M61.7088927,14.4295895 L59.8774769,14.4295895 L59.8774769,30.7508145 L66.244787,30.7508145 L66.244787,29.0627657 L61.7094096,29.0627657 L61.7094096,14.4295895 L61.7088927,14.4295895 Z M49.1040171,30.7508145 L57.6299477,30.7508145 L57.6299477,29.0627657 L50.9354329,29.0627657 L50.9354329,22.6553637 L57.4340384,22.6553637 L57.4340384,20.967315 L50.9354329,20.967315 L50.9354329,16.1181513 L57.6299477,16.1181513 L57.6299477,14.4295895 L49.1040171,14.4295895 L49.1040171,30.7508145 Z M41.406178,22.5465898 L41.406178,24.2346385 L46.2915042,24.2346385 C46.2915042,27.265943 43.2820482,29.3423969 40.4250809,29.3423969 C38.7022164,29.3423969 36.9581586,28.4557865 35.758925,27.2649169 C34.5374642,26.0309481 33.8396343,24.3859985 33.8396343,22.6543375 C33.8396343,18.9739808 36.8051529,15.8364678 40.5563763,15.8364678 C42.9770706,15.8364678 44.8307136,16.9832121 46.2046631,18.9093322 L47.5346752,17.6763896 C45.7906174,15.4239476 43.4567641,14.1479059 40.5786035,14.1479059 C35.8467999,14.1479059 32.0087354,17.9570469 32.0087354,22.6333011 C32.0087354,27.2218177 35.8467999,31.0304456 40.4695352,31.0304456 C42.759968,31.0304456 45.0488501,30.0366005 46.554095,28.3044265 C48.0593399,26.5727656 48.2986697,24.7543933 48.2552492,22.5460767 L41.406178,22.5465898 Z M16.4424766,30.7508145 L18.2744093,30.7508145 L18.2744093,18.1745948 L31.0963875,31.486578 L31.0963875,14.4295895 L29.2649717,14.4295895 L29.2649717,27.0704578 L16.4424766,13.7374382 L16.4424766,30.7508145 Z M10.292786,24.4296107 L4.73185713,24.4296107 L7.54540389,17.8923982 L10.292786,24.4296107 Z M11.0123262,26.1181725 L12.9528102,30.7503014 L14.9811691,30.7503014 L7.58934132,13.6502138 L0.000570447273,30.7503014 L2.00670217,30.7503014 L3.99112362,26.1181725 L11.0123262,26.1181725 Z"/>
    <path d="M53.3845574 14.7302058L54.9347736 14.7302058 54.9347736 4.08882865 65.7837023 15.3530906 65.7837023.920530495 64.2340031.920530495 64.2340031 11.6168077 53.3840405.334074657 53.3840405 14.7302058 53.3845574 14.7302058zM48.180814 9.38181065L43.4764067 9.38181065 45.8562651 3.85075734 48.180814 9.38181065zM48.7897352 10.8107516L50.4319616 14.7302058 52.1481062 14.7302058 45.8929658.260703542 39.4718969 14.7296927 41.1694328 14.7296927 42.8488767 10.8102385 48.7897352 10.8107516zM33.0839104 2.34895836L33.6933485 2.34895836C35.5940304 2.34895836 36.9224917 2.56907171 36.9224917 4.65681344 36.9224917 6.79945524 35.427585 7.00058445 33.6747397 7.00058445L33.0844273 7.00058445 33.0839104 2.34895836zM31.5336942 14.7302058L34.7638712 14.7302058C37.5128041 14.7302058 39.7458598 13.6311783 39.7458598 10.8836096 39.7458598 9.2355815 38.7673472 7.75174049 37.1075459 7.34896898 38.0483239 6.72608413 38.4732248 5.7732858 38.4732248 4.65681344 38.4732248 1.83587364 36.3518219.92001741 33.8230932.92001741L31.5352449.92001741 31.5352449 14.7302058 31.5336942 14.7302058zM33.0839104 8.31972527L34.4309805 8.31972527C36.1285164 8.31972527 38.1951267 8.6311677 38.1951267 10.7738095 38.1951267 12.8805354 36.3683631 13.3012648 34.6336097 13.3012648L33.0833935 13.3012648 33.0833935 8.31972527 33.0839104 8.31972527zM23.452824 8.66759671L23.8405073 8.66759671 28.0471293 14.7302058 29.9478111 14.7302058 25.5189174 8.53983862C27.659446 8.35718046 29.0070331 6.85435531 29.0070331 4.73018456 29.0070331 1.61678646 26.5527395.920530495 23.9139087.920530495L21.9026078.920530495 21.9026078 14.7307189 23.452824 14.7307189 23.452824 8.66759671zM23.452824 2.34895836L23.9139087 2.34895836C25.7773729 2.34895836 27.4563 2.56907171 27.4563 4.8394716 27.4563 6.98262649 25.6848459 7.31202688 23.9325175 7.31202688L23.452824 7.31202688 23.452824 2.34895836zM10.7760978.920530495L9.22639857.920530495 9.22639857 9.56549498C9.22639857 11.1406651 9.37371821 12.4043927 10.5920775 13.5583203 11.5328556 14.4736634 12.8799257 14.9693033 14.1902952 14.9693033 15.5921579 14.9693033 16.9764457 14.4192765 17.9358326 13.3941332 19.043056 12.2586767 19.153675 11.067807 19.153675 9.56652115L19.153675.921043579 17.6034588.921043579 17.6034588 9.14425242C17.6034588 10.2253219 17.6582513 11.4336365 16.9201024 12.3130637 16.2744805 13.0821777 15.1863828 13.5403623 14.1897783 13.5403623 13.174565 13.5403623 11.9939402 13.0637066 11.3845021 12.2217346 10.7383633 11.3423074 10.7760978 10.1704219 10.7760978 9.14425242L10.7760978.920530495zM5.22374967 9.26015826L6.7336468 9.26015826 6.7336468 8.96102987 5.54785289 8.96102987 5.54785289 7.82608646 6.69953067 7.82608646 6.69953067 7.52747115 5.54785289 7.52747115 5.54785289 6.66805424 6.7336468 6.66805424 6.7336468 6.36995202 5.22374967 6.36995202 5.22374967 9.26015826zM2.65108346 7.5428637L2.65108346 6.36995202 2.32749715 6.36995202 2.32749715 9.26015826 2.65108346 9.26015826 2.65108346 7.841479 4.14237179 7.841479 4.14237179 9.26015826 4.4659581 9.26015826 4.4659581 6.36995202 4.14237179 6.36995202 4.14237179 7.54337678 2.65108346 7.54337678 2.65108346 7.5428637zM1.11379005 6.66805424L1.82454272 6.66805424 1.82454272 6.36995202.0872047364 6.36995202.0872047364 6.66856733.78968683 6.66856733.78968683 9.26067134 1.11327314 9.26067134 1.11327314 6.66805424 1.11379005 6.66805424zM194.703433 30.7846781L196.442322 30.7846781 196.442322 26.5404412C196.704396 26.1900044 197.188225 25.7482384 197.750624 25.7482384 198.377637 25.7482384 198.600426 26.072508 198.600426 26.7092461L198.600426 30.7846781 200.338797 30.7846781 200.338797 26.3588092C200.338797 25.1905153 199.817234 24.3085227 198.430879 24.3085227 197.514912 24.3085227 196.861537 24.7236082 196.404071 25.2561902L196.404071 24.4639874 194.70395 24.4639874 194.70395 30.7846781 194.703433 30.7846781zM190.532995 29.6292113C189.551898 29.6292113 189.159562 28.7728729 189.159562 27.5912387 189.159562 26.4101177 189.487284 25.5927738 190.468381 25.5927738 191.461367 25.5927738 191.880065 26.4624524 191.880065 27.6435734 191.880065 28.8241813 191.526498 29.6292113 190.532995 29.6292113L190.532995 29.6292113zM190.506633 30.9406558C192.74279 30.9406558 193.72337 29.1874453 193.72337 27.5917518 193.72337 25.969891 192.716427 24.3090358 190.493193 24.3090358 188.270992 24.3090358 187.316775 26.0222257 187.316775 27.6440865 187.316775 29.2659473 188.284432 30.9406558 190.506633 30.9406558L190.506633 30.9406558zM184.478933 30.7846781L186.231261 30.7846781 186.231261 24.4639874 184.478933 24.4639874 184.478933 30.7846781zM185.355097 23.6461303C185.969705 23.6461303 186.427171 23.1643438 186.427171 22.6076468 186.427171 22.0627509 185.969705 21.5953307 185.355097 21.5953307 184.741007 21.5953307 184.296463 22.0622378 184.296463 22.6076468 184.29543 23.1648568 184.74049 23.6461303 185.355097 23.6461303L185.355097 23.6461303zM182.007581 30.9406558C182.805175 30.9406558 183.342246 30.7200294 183.602769 30.5768787L183.198028 29.2921146C183.066732 29.3695904 182.739527 29.5250551 182.361149 29.5250551 181.876803 29.5250551 181.721213 29.2536332 181.721213 28.6307484L181.721213 25.7482384 183.211467 25.7482384 183.211467 24.4639874 181.721213 24.4639874 181.721213 22.6338142 179.99473 22.6338142 179.99473 24.4639874 178.974347 24.4639874 178.974347 25.7482384 179.99473 25.7482384 179.99473 28.9668189C179.994213 30.1746203 180.503887 30.9406558 182.007581 30.9406558L182.007581 30.9406558zM175.300661 29.6810328C174.908842 29.6810328 174.52943 29.4870868 174.52943 29.0196666 174.52943 28.2797984 175.235013 27.9811831 176.255395 27.9811831L176.47715 27.9811831 176.47715 29.1233097C176.202671 29.4342391 175.836181 29.6810328 175.300661 29.6810328L175.300661 29.6810328zM174.777547 30.9406558C175.600986 30.9406558 176.227999 30.5250572 176.568644 30.1099716 176.581049 30.3039177 176.621368 30.6276741 176.67306 30.7846781L178.386103 30.7846781C178.295126 30.3813935 178.203116 29.7713357 178.203116 28.9149973L178.203116 26.6440843C178.203116 24.9693758 177.37916 24.3080096 175.640271 24.3080096 174.436902 24.3080096 173.574178 24.7482363 173.064504 25.2161696L173.822295 26.2685063C174.201191 25.9693779 174.749634 25.6702495 175.443328 25.6702495 176.202154 25.6702495 176.476116 25.9426975 176.476116 26.5527553L176.476116 26.9160193 176.254362 26.9160193C174.567681 26.9160193 172.854121 27.514276 172.854121 29.1617911 172.854638 30.2910906 173.692034 30.9406558 174.777547 30.9406558L174.777547 30.9406558zM168.946273 29.5640495C168.05667 29.5640495 167.651411 28.8498356 167.651411 27.6435734 167.651411 26.3978037 168.135757 25.6584486 169.02381 25.6584486 169.521595 25.6584486 169.860172 25.8262273 170.135686 26.072508L170.135686 28.9288506C169.886535 29.2531202 169.454914 29.5640495 168.946273 29.5640495L168.946273 29.5640495zM168.422643 30.9529698C169.219719 30.9529698 169.782119 30.6153601 170.213739 30.0966314 170.226662 30.2910906 170.291793 30.6287003 170.344518 30.7846781L172.057044 30.7846781C171.966068 30.3680533 171.874574 29.7456815 171.874574 28.979646L171.874574 21.4393529 170.135686 21.4393529 170.135686 24.7492625C169.834844 24.5029818 169.338092 24.3085227 168.657837 24.3085227 167.023881 24.3085227 165.80759 25.618428 165.80759 27.6435734 165.80759 29.7585086 166.827455 30.9529698 168.422643 30.9529698L168.422643 30.9529698zM159.230414 30.7846781L160.968785 30.7846781 160.968785 26.5404412C161.230342 26.1900044 161.714171 25.7482384 162.27657 25.7482384 162.903583 25.7482384 163.126889 26.072508 163.126889 26.7092461L163.126889 30.7846781 164.865261 30.7846781 164.865261 26.3588092C164.865261 25.1905153 164.343181 24.3085227 162.956308 24.3085227 162.040859 24.3085227 161.388 24.7236082 160.930017 25.2561902L160.930017 24.4639874 159.230414 24.4639874 159.230414 30.7846781zM154.066472 30.9406558C155.125106 30.9406558 155.778482 30.3680533 156.118609 29.9411668 156.131532 30.2013007 156.196663 30.6153601 156.248871 30.7851911L157.962431 30.7851911C157.883344 30.4091 157.79185 29.7723619 157.79185 28.967332L157.79185 24.4645004 156.052962 24.4645004 156.052962 28.7087373C155.922183 28.864715 155.411475 29.4994008 154.74466 29.4994008 154.11713 29.4994008 153.894858 29.1756444 153.894858 28.5394193L153.894858 24.4645004 152.155452 24.4645004 152.155452 28.8893431C152.156486 30.0442968 152.667194 30.9406558 154.066472 30.9406558L154.066472 30.9406558zM148.038773 29.6292113C147.058193 29.6292113 146.664823 28.7728729 146.664823 27.5912387 146.664823 26.4101177 146.991511 25.5927738 147.973125 25.5927738 148.966628 25.5927738 149.384809 26.4624524 149.384809 27.6435734 149.384809 28.8241813 149.032276 29.6292113 148.038773 29.6292113L148.038773 29.6292113zM148.011894 30.9406558C150.248051 30.9406558 151.229148 29.1874453 151.229148 27.5917518 151.229148 25.969891 150.222205 24.3090358 147.998971 24.3090358 145.776253 24.3090358 144.822036 26.0222257 144.822036 27.6440865 144.822036 29.2659473 145.789693 30.9406558 148.011894 30.9406558L148.011894 30.9406558zM139.290571 30.7846781L141.134392 30.7846781 141.134392 27.1889803 143.906586 27.1889803 143.906586 25.7615786 141.134392 25.7615786 141.134392 23.6461303 144.285999 23.6461303 144.285999 22.1397136 139.290571 22.1397136 139.290571 30.7846781zM133.524945 30.7846781L135.263834 30.7846781 135.263834 21.4393529 133.524945 21.4393529 133.524945 30.7846781zM129.171003 29.6810328C128.779185 29.6810328 128.399772 29.4870868 128.399772 29.0196666 128.399772 28.2797984 129.105872 27.9811831 130.125221 27.9811831L130.348527 27.9811831 130.348527 29.1233097C130.07353 29.4342391 129.70704 29.6810328 129.171003 29.6810328L129.171003 29.6810328zM128.647889 30.9406558C129.471329 30.9406558 130.098342 30.5250572 130.438986 30.1099716 130.452426 30.3039177 130.490677 30.6276741 130.543402 30.7846781L132.255928 30.7846781C132.164952 30.3813935 132.073459 29.7713357 132.073459 28.9149973L132.073459 26.6440843C132.073459 24.9693758 131.249503 24.3080096 129.510614 24.3080096 128.307245 24.3080096 127.44452 24.7482363 126.933812 25.2161696L127.692121 26.2685063C128.071534 25.9693779 128.62101 25.6702495 129.313671 25.6702495 130.072496 25.6702495 130.346976 25.9426975 130.346976 26.5527553L130.346976 26.9160193 130.124187 26.9160193C128.437507 26.9160193 126.72498 27.514276 126.72498 29.1617911 126.725497 30.2910906 127.562376 30.9406558 128.647889 30.9406558L128.647889 30.9406558zM124.725051 30.9406558C125.522645 30.9406558 126.059716 30.7200294 126.320239 30.5768787L125.914981 29.2921146C125.784202 29.3695904 125.456998 29.5250551 125.078102 29.5250551 124.593756 29.5250551 124.437649 29.2536332 124.437649 28.6307484L124.437649 25.7482384 125.927387 25.7482384 125.927387 24.4639874 124.437649 24.4639874 124.437649 22.6338142 122.711683 22.6338142 122.711683 24.4639874 121.691818 24.4639874 121.691818 25.7482384 122.711683 25.7482384 122.711683 28.9668189C122.711683 30.1746203 123.221357 30.9406558 124.725051 30.9406558L124.725051 30.9406558zM118.998194 30.7846781L120.750006 30.7846781 120.750006 24.4639874 118.998194 24.4639874 118.998194 30.7846781zM119.874358 23.6461303C120.488966 23.6461303 120.946949 23.1643438 120.946949 22.6076468 120.946949 22.0627509 120.489482 21.5953307 119.874358 21.5953307 119.260268 21.5953307 118.815725 22.0622378 118.815725 22.6076468 118.815208 23.1648568 119.259751 23.6461303 119.874358 23.6461303L119.874358 23.6461303zM114.683021 29.603557C114.134061 29.603557 113.807374 29.3695904 113.584585 29.1751313L113.584585 26.333155C113.714846 26.1510099 114.134061 25.6830767 114.78692 25.6830767 115.637756 25.6830767 116.055937 26.4229448 116.055937 27.6163799 116.056453 28.8642019 115.573142 29.603557 114.683021 29.603557L114.683021 29.603557zM111.846213 33.6266543L113.584585 33.6266543 113.584585 30.4860627C113.807374 30.6800088 114.265357 30.9396296 115.048994 30.9396296 116.708795 30.9396296 117.899241 29.6158711 117.899241 27.6163799 117.899241 25.5019578 116.918661 24.3069834 115.310551 24.3069834 114.447309 24.3069834 113.898867 24.6969278 113.545817 25.1248405L113.545817 24.4639874 111.845696 24.4639874 111.846213 33.6266543zM108.367919 30.9406558C109.936744 30.9406558 110.890962 30.239269 110.890962 28.9155104 110.890962 27.8508596 110.159015 27.3967796 109.15259 26.9822072 108.420127 26.6953928 107.845839 26.5799488 107.845839 26.1510099 107.845839 25.8139133 108.106879 25.5927738 108.721486 25.5927738 109.336093 25.5927738 109.833362 25.8395675 110.081479 25.9955453L110.695569 24.8149373C110.408167 24.6456194 109.741868 24.3095489 108.655838 24.3095489 107.217275 24.3095489 106.276497 25.0617311 106.276497 26.2418259 106.276497 27.2038598 106.812533 27.6969342 107.701104 28.1115067 108.604147 28.5399324 109.309731 28.6569157 109.309731 29.0848284 109.309731 29.4614326 108.929801 29.6548655 108.262469 29.6548655 107.557402 29.6548655 106.942795 29.3044286 106.693644 29.1361368L106.105916 30.3439383C106.498252 30.6020199 107.230198 30.9406558 108.367919 30.9406558L108.367919 30.9406558zM102.445152 29.6292113C101.464572 29.6292113 101.072236 28.7728729 101.072236 27.5912387 101.072236 26.4101177 101.398407 25.5927738 102.379504 25.5927738 103.372491 25.5927738 103.791705 26.4624524 103.791705 27.6435734 103.792222 28.8241813 103.437621 29.6292113 102.445152 29.6292113L102.445152 29.6292113zM102.419307 30.9406558C104.654947 30.9406558 105.63501 29.1874453 105.63501 27.5917518 105.63501 25.969891 104.629101 24.3090358 102.40535 24.3090358 100.182633 24.3090358 99.2289317 26.0222257 99.2289317 27.6440865 99.2289317 29.2659473 100.196072 30.9406558 102.419307 30.9406558L102.419307 30.9406558zM90.5205315 30.7846781L92.3643532 30.7846781 92.3643532 27.0463428 96.2608285 27.0463428 96.2608285 30.7846781 98.1041333 30.7846781 98.1041333 22.1402267 96.2608285 22.1402267 96.2608285 25.5414653 92.3643532 25.5414653 92.3643532 22.1402267 90.5205315 22.1402267 90.5205315 30.7846781zM196.259232 16.6673059C199.002996 16.6673059 200.672102 15.4415465 200.672102 13.1275344 200.672102 11.266063 199.391713 10.4712947 197.631631 9.74527987 196.351242 9.24656152 195.345333 9.0423538 195.345333 8.2932501 195.345333 7.70268959 195.801766 7.31684988 196.877458 7.31684988 197.952116 7.31684988 198.821043 7.74835413 199.255248 8.02028903L200.329907 5.95614919C199.826435 5.66061239 198.660801 5.07005188 196.76322 5.07005188 194.247931 5.07005188 192.60157 6.38662727 192.60157 8.4512802 192.60157 10.1306065 193.539246 10.9931019 195.094632 11.7191168 196.672244 12.4682205 197.906628 12.6724282 197.906628 13.4215319 197.906628 14.0798196 197.242914 14.4210209 196.076246 14.4210209 194.842379 14.4210209 193.767721 13.8078847 193.333516 13.512861L192.304346 15.6236915C192.98977 16.0772584 194.270158 16.6673059 196.259232 16.6673059L196.259232 16.6673059zM189.080372 7.29427415L190.955208 7.29427415C191.640632 6.43229181 192.60157 4.77554125 192.60157 3.23166932 192.60157 1.84787982 191.617888 1.00847322 190.521003 1.00847322 189.515094 1.00847322 188.73766 1.66676091 188.73766 2.62058541 188.73766 3.95871037 189.927072 4.00386182 189.927072 5.13880523 189.926555 5.91099774 189.446345 6.7719539 189.080372 7.29427415L189.080372 7.29427415zM184.370795 16.3948579L187.411266 16.3948579 187.411266.0551618023 184.370795.0551618023 184.370795 16.3948579zM175.705299 9.51798333C175.933773 8.0885293 176.641942 7.24963578 177.945591 7.24963578 179.340217 7.24963578 179.842655 8.27016129 179.866433 9.51798333L175.705299 9.51798333zM178.311564 16.6673059C180.597862 16.6673059 181.741269 16.0095312 182.473215 15.6006027L181.490567 13.6493415C180.941608 13.9212764 180.094907 14.4210209 178.586044 14.4210209 176.733952 14.4210209 175.888285 13.1952615 175.750787 11.5605736L182.793183 11.5605736C182.815927 11.1973096 182.838671 10.8571345 182.838671 10.5169593 182.838671 7.0674907 181.146304 5.07005188 177.991596 5.07005188 174.904604 5.07005188 172.481842 7.31684988 172.481842 10.8114699 172.481842 14.3296919 174.585153 16.6673059 178.311564 16.6673059L178.311564 16.6673059zM166.262885 14.4656593C165.57591 14.4656593 164.913747 14.1254841 164.913747 13.3091663 164.913747 12.0151667 166.147614 11.4928464 167.931474 11.4928464L168.320191 11.4928464 168.320191 13.4897722C167.83998 14.0351812 167.199528 14.4656593 166.262885 14.4656593L166.262885 14.4656593zM165.347952 16.6673059C166.788583 16.6673059 167.886502 15.9418041 168.48095 15.2142499 168.503694 15.5549382 168.571926 16.1224099 168.663937 16.3953709L171.658402 16.3953709C171.498677 15.6914187 171.337917 14.6252287 171.337917 13.1275344L171.337917 9.15523243C171.337917 6.22757101 169.897286 5.07005188 166.857333 5.07005188 164.753505 5.07005188 163.245158 5.8417313 162.35297 6.65907526L163.678847 8.49745782C164.342044 7.97565066 165.302464 7.45333041 166.513587 7.45333041 167.83998 7.45333041 168.320191 7.92998612 168.320191 8.99566309L168.320191 9.63137506 167.931991 9.63137506C164.981979 9.63137506 161.987514 10.6749894 161.987514 13.5569863 161.987514 15.5318494 163.450372 16.6673059 165.347952 16.6673059L165.347952 16.6673059zM150.875994 16.3948579L153.916465 16.3948579 153.916465 8.97360044C154.14494 8.6796029 155.036611 7.58981095 156.226023 7.58981095 157.300681 7.58981095 157.688882 8.15728265 157.688882 9.26913724L157.688882 16.3953709 160.730386 16.3953709 160.730386 8.65548792C160.730386 6.61341072 159.838198 5.07005188 157.392175 5.07005188 155.562827 5.07005188 154.488168 6.06851475 153.916982 6.68216407L153.916982.0551618023 150.876511.0551618023 150.876511 16.3948579 150.875994 16.3948579zM146.326143 16.6673059C148.360705 16.6673059 149.389358 16.0095312 149.915057 15.6693561L148.977897 13.6493415C148.634668 13.8530362 147.857234 14.3302049 146.576845 14.3302049 144.679265 14.3302049 143.787593 12.8325106 143.787593 10.7899204 143.787593 8.746817 144.724753 7.36354058 146.508613 7.36354058 147.628242 7.36354058 148.337961 7.70371576 148.839882 8.0213152L149.82408 5.95666228C149.297865 5.61597402 148.223207 5.07107805 146.416603 5.07107805 143.056681 5.07107805 140.563619 7.15933287 140.563619 10.8812494 140.564136 14.306603 142.75894 16.6673059 146.326143 16.6673059L146.326143 16.6673059zM136.06029 16.3948579L139.124022 16.3948579 139.124022 5.34301295 136.06029 5.34301295 136.06029 16.3948579zM137.591898 3.91304583C138.667072 3.91304583 139.467251 3.07261305 139.467251 2.097239 139.467251 1.1434145 138.666556.32658362 137.591898.32658362 136.517756.32658362 135.740322 1.14392758 135.740322 2.097239 135.740839 3.07261305 136.517756 3.91304583 137.591898 3.91304583L137.591898 3.91304583zM116.261047 16.3948579L119.164536 16.3948579 120.148218 8.61033646C120.262455 7.61289976 120.331204 6.72731553 120.353948 6.38662727L120.399953 6.38662727C120.49093 6.7047398 120.719921 7.61238667 121.016628 8.565185L123.600667 16.3953709 126.778636 16.3953709 129.362674 8.54260928C129.682642 7.54363332 129.911117 6.72680244 129.979866 6.38662727L130.025354 6.38662727C130.048098 6.68216407 130.139591 7.47539305 130.27709 8.58827382L131.259737 16.3948579 134.552461 16.3948579 132.44915 1.27989503 129.33993 1.27989503 126.184705 10.6067491C125.818215 11.6970541 125.498247 12.8089087 125.38401 13.2168111L125.338005 13.2168111C125.201023 12.786333 124.926543 11.6965411 124.561087 10.6072622L121.496839 1.28040812 118.364875 1.28040812 116.261047 16.3948579zM110.26643 16.6216413C111.386576 16.6216413 112.278764 15.7591459 112.278764 14.669867 112.278764 13.5805882 111.387093 12.7416946 110.26643 12.7416946 109.146283 12.7416946 108.231351 13.5811012 108.231351 14.669867 108.231351 15.759659 109.146283 16.6216413 110.26643 16.6216413L110.26643 16.6216413zM105.053899 16.6673059C106.448525 16.6673059 107.385684 16.2809531 107.843151 16.0326201L107.134466 13.785309C106.905991 13.9212764 106.334287 14.1937244 105.670574 14.1937244 104.824907 14.1937244 104.550427 13.7170687 104.550427 12.6272767L104.550427 7.58981095 107.15721 7.58981095 107.15721 5.34352603 104.550427 5.34352603 104.550427 2.14341662 101.532184 2.14341662 101.532184 5.34352603 99.7488408 5.34352603 99.7488408 7.58981095 101.532184 7.58981095 101.532184 13.2173242C101.532701 15.3286678 102.424372 16.6673059 105.053899 16.6673059L105.053899 16.6673059zM94.6784605 16.6673059C98.0621601 16.6673059 100.142727 14.9197393 100.142727 12.1742229 100.142727 9.38252897 98.2451466 8.36097728 96.232812 7.45333041 94.6329723 6.72628936 93.4213329 6.34147582 93.4213329 5.16138096 93.4213329 4.13982928 94.2215111 3.5949333 95.4558947 3.5949333 96.7590274 3.5949333 97.9024346 4.18498073 98.4281331 4.5251559L99.7312658 2.2783579C99.09133 1.80118911 97.7649363 1.00744705 95.2734251 1.00744705 92.5524054 1.00744705 90.3576012 2.61904616 90.3576012 5.20601933 90.3576012 7.65651196 91.7522271 8.81351801 93.6270634 9.72167797 95.4104065 10.6067491 97.0335072 10.9931019 97.0335072 12.3312269 97.0335072 13.3076271 96.1418356 14.0787934 94.6097113 14.0787934 92.8496293 14.0787934 91.683478 13.1932092 91.3407659 12.9443631L89.9683672 15.1680723C90.631564 15.7145075 92.2096934 16.6673059 94.6784605 16.6673059L94.6784605 16.6673059z"/>
    <polygon points="79.072 30.932 79.639 30.932 79.639 .865 79.072 .865"/>
  </g>
</svg>
